<svg xmlns="http://www.w3.org/2000/svg" xmlns:xlink="http://www.w3.org/1999/xlink" width="6912" zoomAndPan="magnify" viewBox="0 0 5184 2592.000001" height="3456" preserveAspectRatio="xMidYMid meet" version="1.0"><defs><g/><clipPath id="0b4c31c393"><path d="M 64 475 L 1274.433594 475 L 1274.433594 1858 L 64 1858 Z M 64 475 " clip-rule="nonzero"/></clipPath></defs><g clip-path="url(#0b4c31c393)"><path fill="#1e1e1e" d="M 478.335938 886.101562 L 478.335938 814.378906 C 478.335938 708.253906 564.71875 621.527344 671.230469 621.527344 C 777.742188 621.527344 864.125 707.886719 864.125 814.378906 L 1010.535156 814.378906 C 1010.535156 627.382812 858.269531 475.148438 671.230469 475.148438 C 484.195312 475.148438 331.929688 627.382812 331.929688 814.378906 L 331.929688 886.101562 L 64.367188 886.101562 L 64.367188 1511.128906 C 64.367188 1702.148438 219.925781 1857.675781 410.988281 1857.675781 L 1277.363281 1857.675781 L 1277.363281 886.101562 Z M 1094.71875 1674.703125 L 411.355469 1674.703125 C 320.949219 1674.703125 247.742188 1601.148438 247.742188 1511.128906 L 247.742188 1069.070312 L 1095.085938 1069.070312 L 1095.085938 1674.703125 Z M 1094.71875 1674.703125 " fill-opacity="1" fill-rule="nonzero"/></g><path fill="#3fa9f5" d="M 671.230469 1474.898438 C 782.867188 1474.898438 885.71875 1405.003906 926.347656 1301.078125 L 824.226562 1260.824219 C 799.703125 1323.035156 738.214844 1365.117188 671.230469 1365.117188 C 603.882812 1365.117188 542.390625 1323.035156 517.867188 1260.824219 L 415.746094 1301.078125 C 456.742188 1405.003906 559.226562 1474.898438 671.230469 1474.898438 Z M 671.230469 1474.898438 " fill-opacity="1" fill-rule="nonzero"/><g fill="#1e1e1e" fill-opacity="1"><g transform="translate(1529.631552, 1672.076936)"><g><path d="M 220.394531 -121.476562 L 471.15625 -583.089844 L 471.15625 -607.382812 L 36.441406 -607.382812 L 36.441406 -485.039062 L 275.925781 -485.039062 L 22.558594 -19.089844 L 22.558594 0 L 481.570312 0 L 481.570312 -121.476562 Z M 220.394531 -121.476562 "/></g></g></g><g fill="#1e1e1e" fill-opacity="1"><g transform="translate(2035.365013, 1672.076936)"><g><path d="M 60.738281 -531.027344 L 186.554688 -531.027344 L 186.554688 -648.164062 L 60.738281 -648.164062 Z M 60.738281 0 L 187.421875 0 L 187.421875 -468.554688 L 60.738281 -468.554688 Z M 60.738281 0 "/></g></g></g><g fill="#1e1e1e" fill-opacity="1"><g transform="translate(2283.460615, 1672.076936)"><g><path d="M 315.839844 -481.570312 C 257.703125 -481.570312 205.644531 -460.742188 165.730469 -425.167969 L 144.035156 -468.554688 L 60.738281 -468.554688 L 60.738281 169.199219 L 187.421875 169.199219 L 187.421875 -25.164062 C 222.996094 0 267.25 14.75 315.839844 14.75 C 457.273438 14.75 561.394531 -91.976562 561.394531 -234.277344 C 561.394531 -375.710938 457.273438 -481.570312 315.839844 -481.570312 Z M 305.425781 -105.859375 C 231.671875 -105.859375 177.875 -160.523438 177.875 -234.277344 C 177.875 -307.164062 231.671875 -362.695312 305.425781 -362.695312 C 379.179688 -362.695312 432.976562 -307.164062 432.976562 -234.277344 C 432.976562 -160.523438 379.179688 -105.859375 305.425781 -105.859375 Z M 305.425781 -105.859375 "/></g></g></g><g fill="#1e1e1e" fill-opacity="1"><g transform="translate(2875.073536, 1672.076936)"><g><path d="M 270.71875 12.148438 C 396.535156 12.148438 500.65625 -51.195312 500.65625 -182.214844 C 500.65625 -318.441406 384.386719 -347.078125 292.410156 -370.503906 C 227.335938 -386.121094 175.273438 -399.136719 175.273438 -441.65625 C 175.273438 -481.570312 217.789062 -499.789062 260.308594 -499.789062 C 309.765625 -499.789062 353.148438 -475.496094 353.148438 -422.566406 L 482.4375 -422.566406 C 482.4375 -544.042969 403.476562 -618.664062 263.777344 -618.664062 C 129.285156 -618.664062 43.382812 -552.71875 43.382812 -436.449219 C 43.382812 -305.425781 154.449219 -278.527344 246.425781 -255.96875 C 312.367188 -241.21875 367.902344 -228.203125 367.902344 -180.480469 C 367.902344 -135.359375 319.308594 -109.328125 269.851562 -109.328125 C 216.054688 -109.328125 167.464844 -137.960938 167.464844 -196.097656 L 34.707031 -196.097656 C 34.707031 -65.945312 131.019531 12.148438 270.71875 12.148438 Z M 270.71875 12.148438 "/></g></g></g><g fill="#1e1e1e" fill-opacity="1"><g transform="translate(3412.03607, 1672.076936)"><g><path d="M 328.855469 -478.964844 C 272.453125 -478.964844 222.996094 -458.140625 187.421875 -424.300781 L 187.421875 -636.886719 L 60.738281 -636.886719 L 60.738281 0 L 187.421875 0 L 187.421875 -245.554688 C 187.421875 -321.914062 229.070312 -367.902344 292.410156 -367.902344 C 348.8125 -367.902344 373.976562 -333.195312 373.976562 -262.910156 L 373.976562 0 L 500.65625 0 L 500.65625 -284.601562 C 500.65625 -403.476562 434.714844 -478.964844 328.855469 -478.964844 Z M 328.855469 -478.964844 "/></g></g></g><g fill="#1e1e1e" fill-opacity="1"><g transform="translate(3968.082835, 1672.076936)"><g><path d="M 282.867188 13.882812 C 427.773438 13.882812 536.234375 -92.84375 536.234375 -234.277344 C 536.234375 -375.710938 427.773438 -481.570312 282.867188 -481.570312 C 137.960938 -481.570312 29.5 -375.710938 29.5 -234.277344 C 29.5 -92.84375 137.960938 13.882812 282.867188 13.882812 Z M 282.867188 -105.859375 C 209.980469 -105.859375 157.917969 -157.917969 157.917969 -234.277344 C 157.917969 -309.765625 209.980469 -362.695312 282.867188 -362.695312 C 355.753906 -362.695312 407.816406 -309.765625 407.816406 -234.277344 C 407.816406 -157.917969 355.753906 -105.859375 282.867188 -105.859375 Z M 282.867188 -105.859375 "/></g></g></g><g fill="#1e1e1e" fill-opacity="1"><g transform="translate(4534.539112, 1672.076936)"><g><path d="M 315.839844 -481.570312 C 257.703125 -481.570312 205.644531 -460.742188 165.730469 -425.167969 L 144.035156 -468.554688 L 60.738281 -468.554688 L 60.738281 169.199219 L 187.421875 169.199219 L 187.421875 -25.164062 C 222.996094 0 267.25 14.75 315.839844 14.75 C 457.273438 14.75 561.394531 -91.976562 561.394531 -234.277344 C 561.394531 -375.710938 457.273438 -481.570312 315.839844 -481.570312 Z M 305.425781 -105.859375 C 231.671875 -105.859375 177.875 -160.523438 177.875 -234.277344 C 177.875 -307.164062 231.671875 -362.695312 305.425781 -362.695312 C 379.179688 -362.695312 432.976562 -307.164062 432.976562 -234.277344 C 432.976562 -160.523438 379.179688 -105.859375 305.425781 -105.859375 Z M 305.425781 -105.859375 "/></g></g></g></svg>